<mxfile host="65bd71144e">
    <diagram id="5ADV3Nt3Yf_c5sIbEpJ-" name="ActivityDiagram">
        <mxGraphModel dx="1139" dy="719" grid="1" gridSize="10" guides="1" tooltips="1" connect="1" arrows="1" fold="1" page="1" pageScale="1" pageWidth="850" pageHeight="1100" math="0" shadow="0">
            <root>
                <mxCell id="0"/>
                <mxCell id="1" parent="0"/>
                <mxCell id="SUqyX6ZWO_V6x3E6NFx7-1" value="Start" style="ellipse;whiteSpace=wrap;html=1;" parent="1" vertex="1">
                    <mxGeometry x="340" y="140" width="60" height="50" as="geometry"/>
                </mxCell>
                <mxCell id="SUqyX6ZWO_V6x3E6NFx7-2" value="Login" style="rounded=1;whiteSpace=wrap;html=1;" parent="1" vertex="1">
                    <mxGeometry x="320" y="320" width="100" height="30" as="geometry"/>
                </mxCell>
                <mxCell id="SUqyX6ZWO_V6x3E6NFx7-3" value="" style="endArrow=classic;html=1;exitX=0.5;exitY=1;exitDx=0;exitDy=0;entryX=0.5;entryY=0;entryDx=0;entryDy=0;" parent="1" source="SUqyX6ZWO_V6x3E6NFx7-1" target="SUqyX6ZWO_V6x3E6NFx7-12" edge="1">
                    <mxGeometry width="50" height="50" relative="1" as="geometry">
                        <mxPoint x="350" y="350" as="sourcePoint"/>
                        <mxPoint x="240" y="240" as="targetPoint"/>
                    </mxGeometry>
                </mxCell>
                <mxCell id="SUqyX6ZWO_V6x3E6NFx7-4" value="" style="rhombus;whiteSpace=wrap;html=1;" parent="1" vertex="1">
                    <mxGeometry x="355" y="410" width="30" height="30" as="geometry"/>
                </mxCell>
                <mxCell id="SUqyX6ZWO_V6x3E6NFx7-5" value="" style="endArrow=classic;html=1;exitX=0.5;exitY=1;exitDx=0;exitDy=0;entryX=0.5;entryY=0;entryDx=0;entryDy=0;" parent="1" source="SUqyX6ZWO_V6x3E6NFx7-2" target="SUqyX6ZWO_V6x3E6NFx7-4" edge="1">
                    <mxGeometry width="50" height="50" relative="1" as="geometry">
                        <mxPoint x="160" y="560" as="sourcePoint"/>
                        <mxPoint x="210" y="510" as="targetPoint"/>
                    </mxGeometry>
                </mxCell>
                <mxCell id="SUqyX6ZWO_V6x3E6NFx7-6" value="" style="rhombus;whiteSpace=wrap;html=1;" parent="1" vertex="1">
                    <mxGeometry x="970" y="420" width="30" height="30" as="geometry"/>
                </mxCell>
                <mxCell id="SUqyX6ZWO_V6x3E6NFx7-7" value="Admin?" style="text;html=1;strokeColor=none;fillColor=none;align=center;verticalAlign=middle;whiteSpace=wrap;rounded=0;" parent="1" vertex="1">
                    <mxGeometry x="300" y="390" width="60" height="30" as="geometry"/>
                </mxCell>
                <mxCell id="SUqyX6ZWO_V6x3E6NFx7-8" value="" style="endArrow=classic;html=1;exitX=1;exitY=0.5;exitDx=0;exitDy=0;entryX=0;entryY=0.5;entryDx=0;entryDy=0;" parent="1" source="SUqyX6ZWO_V6x3E6NFx7-4" target="SUqyX6ZWO_V6x3E6NFx7-6" edge="1">
                    <mxGeometry width="50" height="50" relative="1" as="geometry">
                        <mxPoint x="510" y="290" as="sourcePoint"/>
                        <mxPoint x="580" y="420" as="targetPoint"/>
                    </mxGeometry>
                </mxCell>
                <mxCell id="SUqyX6ZWO_V6x3E6NFx7-9" value="Yes" style="text;html=1;strokeColor=none;fillColor=none;align=center;verticalAlign=middle;whiteSpace=wrap;rounded=0;" parent="1" vertex="1">
                    <mxGeometry x="360" y="400" width="60" height="30" as="geometry"/>
                </mxCell>
                <mxCell id="SUqyX6ZWO_V6x3E6NFx7-10" value="" style="endArrow=classic;html=1;exitX=0;exitY=0.5;exitDx=0;exitDy=0;entryX=1;entryY=0.5;entryDx=0;entryDy=0;" parent="1" source="SUqyX6ZWO_V6x3E6NFx7-12" target="SUqyX6ZWO_V6x3E6NFx7-15" edge="1">
                    <mxGeometry width="50" height="50" relative="1" as="geometry">
                        <mxPoint x="210" y="290" as="sourcePoint"/>
                        <mxPoint x="200" y="340" as="targetPoint"/>
                    </mxGeometry>
                </mxCell>
                <mxCell id="SUqyX6ZWO_V6x3E6NFx7-12" value="" style="rhombus;whiteSpace=wrap;html=1;" parent="1" vertex="1">
                    <mxGeometry x="355" y="240" width="30" height="30" as="geometry"/>
                </mxCell>
                <mxCell id="SUqyX6ZWO_V6x3E6NFx7-13" value="Choose Option" style="text;html=1;strokeColor=none;fillColor=none;align=center;verticalAlign=middle;whiteSpace=wrap;rounded=0;" parent="1" vertex="1">
                    <mxGeometry x="300" y="210" width="80" height="30" as="geometry"/>
                </mxCell>
                <mxCell id="SUqyX6ZWO_V6x3E6NFx7-15" value="Register&lt;br&gt;Patient&lt;br&gt;Information" style="rounded=1;whiteSpace=wrap;html=1;" parent="1" vertex="1">
                    <mxGeometry x="90" y="230" width="100" height="50" as="geometry"/>
                </mxCell>
                <mxCell id="SUqyX6ZWO_V6x3E6NFx7-17" value="" style="endArrow=classic;html=1;exitX=0.5;exitY=1;exitDx=0;exitDy=0;" parent="1" source="SUqyX6ZWO_V6x3E6NFx7-4" edge="1">
                    <mxGeometry width="50" height="50" relative="1" as="geometry">
                        <mxPoint x="310" y="370" as="sourcePoint"/>
                        <mxPoint x="370" y="510" as="targetPoint"/>
                    </mxGeometry>
                </mxCell>
                <mxCell id="SUqyX6ZWO_V6x3E6NFx7-18" value="No" style="text;html=1;strokeColor=none;fillColor=none;align=center;verticalAlign=middle;whiteSpace=wrap;rounded=0;" parent="1" vertex="1">
                    <mxGeometry x="310" y="450" width="80" height="30" as="geometry"/>
                </mxCell>
                <mxCell id="SUqyX6ZWO_V6x3E6NFx7-20" value="" style="rhombus;whiteSpace=wrap;html=1;" parent="1" vertex="1">
                    <mxGeometry x="355" y="510" width="30" height="30" as="geometry"/>
                </mxCell>
                <mxCell id="SUqyX6ZWO_V6x3E6NFx7-23" value="" style="endArrow=classic;html=1;exitX=0.5;exitY=1;exitDx=0;exitDy=0;entryX=0.5;entryY=0;entryDx=0;entryDy=0;" parent="1" source="20" edge="1" target="SUqyX6ZWO_V6x3E6NFx7-30">
                    <mxGeometry width="50" height="50" relative="1" as="geometry">
                        <mxPoint x="180" y="540" as="sourcePoint"/>
                        <mxPoint x="260" y="650" as="targetPoint"/>
                    </mxGeometry>
                </mxCell>
                <mxCell id="SUqyX6ZWO_V6x3E6NFx7-24" value="" style="endArrow=classic;html=1;exitX=0.5;exitY=1;exitDx=0;exitDy=0;edgeStyle=orthogonalEdgeStyle;entryX=0;entryY=0.5;entryDx=0;entryDy=0;" parent="1" source="SUqyX6ZWO_V6x3E6NFx7-15" target="SUqyX6ZWO_V6x3E6NFx7-20" edge="1">
                    <mxGeometry width="50" height="50" relative="1" as="geometry">
                        <mxPoint x="180" y="580" as="sourcePoint"/>
                        <mxPoint x="140" y="530" as="targetPoint"/>
                    </mxGeometry>
                </mxCell>
                <mxCell id="SUqyX6ZWO_V6x3E6NFx7-26" value="" style="endArrow=classic;html=1;exitX=0.5;exitY=1;exitDx=0;exitDy=0;" parent="1" source="SUqyX6ZWO_V6x3E6NFx7-20" edge="1">
                    <mxGeometry width="50" height="50" relative="1" as="geometry">
                        <mxPoint x="360" y="630" as="sourcePoint"/>
                        <mxPoint x="370" y="610" as="targetPoint"/>
                    </mxGeometry>
                </mxCell>
                <mxCell id="SUqyX6ZWO_V6x3E6NFx7-27" value="" style="endArrow=classic;html=1;exitX=1;exitY=0.5;exitDx=0;exitDy=0;entryX=0;entryY=0.5;entryDx=0;entryDy=0;" parent="1" source="SUqyX6ZWO_V6x3E6NFx7-20" target="20" edge="1">
                    <mxGeometry width="50" height="50" relative="1" as="geometry">
                        <mxPoint x="480" y="630" as="sourcePoint"/>
                        <mxPoint x="490" y="640" as="targetPoint"/>
                    </mxGeometry>
                </mxCell>
                <mxCell id="SUqyX6ZWO_V6x3E6NFx7-28" value="Download ics" style="rounded=1;whiteSpace=wrap;html=1;" parent="1" vertex="1">
                    <mxGeometry x="320" y="610" width="100" height="30" as="geometry"/>
                </mxCell>
                <mxCell id="SUqyX6ZWO_V6x3E6NFx7-30" value="View Patient Information" style="rounded=1;whiteSpace=wrap;html=1;" parent="1" vertex="1">
                    <mxGeometry x="485" y="620" width="100" height="30" as="geometry"/>
                </mxCell>
                <mxCell id="SUqyX6ZWO_V6x3E6NFx7-31" value="Update Patient Information" style="rounded=1;whiteSpace=wrap;html=1;" parent="1" vertex="1">
                    <mxGeometry x="645" y="620" width="100" height="30" as="geometry"/>
                </mxCell>
                <mxCell id="SUqyX6ZWO_V6x3E6NFx7-32" value="" style="rhombus;whiteSpace=wrap;html=1;" parent="1" vertex="1">
                    <mxGeometry x="355" y="770" width="30" height="30" as="geometry"/>
                </mxCell>
                <mxCell id="SUqyX6ZWO_V6x3E6NFx7-37" value="" style="endArrow=classic;html=1;exitX=0.5;exitY=1;exitDx=0;exitDy=0;entryX=0.5;entryY=0;entryDx=0;entryDy=0;" parent="1" source="SUqyX6ZWO_V6x3E6NFx7-28" edge="1" target="SUqyX6ZWO_V6x3E6NFx7-32">
                    <mxGeometry width="50" height="50" relative="1" as="geometry">
                        <mxPoint x="290" y="840" as="sourcePoint"/>
                        <mxPoint x="470" y="740" as="targetPoint"/>
                    </mxGeometry>
                </mxCell>
                <mxCell id="SUqyX6ZWO_V6x3E6NFx7-38" value="" style="endArrow=classic;html=1;exitX=0.5;exitY=1;exitDx=0;exitDy=0;entryX=0.5;entryY=0;entryDx=0;entryDy=0;" parent="1" source="21" edge="1" target="SUqyX6ZWO_V6x3E6NFx7-31">
                    <mxGeometry width="50" height="50" relative="1" as="geometry">
                        <mxPoint x="410" y="790" as="sourcePoint"/>
                        <mxPoint x="370" y="750" as="targetPoint"/>
                    </mxGeometry>
                </mxCell>
                <mxCell id="SUqyX6ZWO_V6x3E6NFx7-39" value="Exit?" style="text;html=1;strokeColor=none;fillColor=none;align=center;verticalAlign=middle;whiteSpace=wrap;rounded=0;" parent="1" vertex="1">
                    <mxGeometry x="290" y="750" width="110" height="30" as="geometry"/>
                </mxCell>
                <mxCell id="SUqyX6ZWO_V6x3E6NFx7-41" value="" style="endArrow=classic;html=1;exitX=0.5;exitY=1;exitDx=0;exitDy=0;entryX=0.5;entryY=0;entryDx=0;entryDy=0;" parent="1" source="SUqyX6ZWO_V6x3E6NFx7-32" edge="1">
                    <mxGeometry width="50" height="50" relative="1" as="geometry">
                        <mxPoint x="250" y="940" as="sourcePoint"/>
                        <mxPoint x="370" y="910" as="targetPoint"/>
                    </mxGeometry>
                </mxCell>
                <mxCell id="SUqyX6ZWO_V6x3E6NFx7-42" value="Yes" style="text;html=1;strokeColor=none;fillColor=none;align=center;verticalAlign=middle;whiteSpace=wrap;rounded=0;" parent="1" vertex="1">
                    <mxGeometry x="360" y="840" width="60" height="30" as="geometry"/>
                </mxCell>
                <mxCell id="SUqyX6ZWO_V6x3E6NFx7-43" value="" style="endArrow=classic;html=1;exitX=0;exitY=0.5;exitDx=0;exitDy=0;edgeStyle=orthogonalEdgeStyle;entryX=0;entryY=0.5;entryDx=0;entryDy=0;" parent="1" source="SUqyX6ZWO_V6x3E6NFx7-32" target="SUqyX6ZWO_V6x3E6NFx7-20" edge="1">
                    <mxGeometry width="50" height="50" relative="1" as="geometry">
                        <mxPoint x="230" y="780" as="sourcePoint"/>
                        <mxPoint x="180" y="530" as="targetPoint"/>
                        <Array as="points">
                            <mxPoint x="140" y="785"/>
                            <mxPoint x="140" y="525"/>
                        </Array>
                    </mxGeometry>
                </mxCell>
                <mxCell id="SUqyX6ZWO_V6x3E6NFx7-44" value="No" style="text;html=1;strokeColor=none;fillColor=none;align=center;verticalAlign=middle;whiteSpace=wrap;rounded=0;" parent="1" vertex="1">
                    <mxGeometry x="190" y="760" width="60" height="30" as="geometry"/>
                </mxCell>
                <mxCell id="SUqyX6ZWO_V6x3E6NFx7-45" value="" style="endArrow=classic;html=1;exitX=1;exitY=0.5;exitDx=0;exitDy=0;entryX=0;entryY=0.5;entryDx=0;entryDy=0;" parent="1" source="SUqyX6ZWO_V6x3E6NFx7-6" target="SUqyX6ZWO_V6x3E6NFx7-49" edge="1">
                    <mxGeometry width="50" height="50" relative="1" as="geometry">
                        <mxPoint x="740" y="490" as="sourcePoint"/>
                        <mxPoint x="830" y="450" as="targetPoint"/>
                    </mxGeometry>
                </mxCell>
                <mxCell id="SUqyX6ZWO_V6x3E6NFx7-46" value="" style="endArrow=classic;html=1;entryX=0;entryY=0.5;entryDx=0;entryDy=0;exitX=1;exitY=0.5;exitDx=0;exitDy=0;" parent="1" source="2" edge="1" target="SUqyX6ZWO_V6x3E6NFx7-51">
                    <mxGeometry width="50" height="50" relative="1" as="geometry">
                        <mxPoint x="760" y="520" as="sourcePoint"/>
                        <mxPoint x="830" y="515" as="targetPoint"/>
                    </mxGeometry>
                </mxCell>
                <mxCell id="SUqyX6ZWO_V6x3E6NFx7-47" value="" style="endArrow=classic;html=1;entryX=0;entryY=0.5;entryDx=0;entryDy=0;exitX=1;exitY=0.5;exitDx=0;exitDy=0;" parent="1" source="4" target="SUqyX6ZWO_V6x3E6NFx7-52" edge="1">
                    <mxGeometry width="50" height="50" relative="1" as="geometry">
                        <mxPoint x="780" y="590" as="sourcePoint"/>
                        <mxPoint x="820" y="580" as="targetPoint"/>
                    </mxGeometry>
                </mxCell>
                <mxCell id="SUqyX6ZWO_V6x3E6NFx7-49" value="Create User" style="rounded=1;whiteSpace=wrap;html=1;" parent="1" vertex="1">
                    <mxGeometry x="1170" y="420" width="90" height="30" as="geometry"/>
                </mxCell>
                <mxCell id="SUqyX6ZWO_V6x3E6NFx7-51" value="Download Patient Info" style="rounded=1;whiteSpace=wrap;html=1;" parent="1" vertex="1">
                    <mxGeometry x="1170" y="500" width="90" height="30" as="geometry"/>
                </mxCell>
                <mxCell id="SUqyX6ZWO_V6x3E6NFx7-52" value="Download Patient Analytics" style="rounded=1;whiteSpace=wrap;html=1;" parent="1" vertex="1">
                    <mxGeometry x="1170" y="570" width="90" height="50" as="geometry"/>
                </mxCell>
                <mxCell id="SUqyX6ZWO_V6x3E6NFx7-54" value="" style="rhombus;whiteSpace=wrap;html=1;" parent="1" vertex="1">
                    <mxGeometry x="1270" y="660" width="30" height="30" as="geometry"/>
                </mxCell>
                <mxCell id="SUqyX6ZWO_V6x3E6NFx7-55" value="" style="endArrow=classic;html=1;exitX=1;exitY=0.5;exitDx=0;exitDy=0;entryX=0.5;entryY=0;entryDx=0;entryDy=0;edgeStyle=orthogonalEdgeStyle;" parent="1" source="SUqyX6ZWO_V6x3E6NFx7-49" target="SUqyX6ZWO_V6x3E6NFx7-54" edge="1">
                    <mxGeometry width="50" height="50" relative="1" as="geometry">
                        <mxPoint x="1200" y="730" as="sourcePoint"/>
                        <mxPoint x="1250" y="680" as="targetPoint"/>
                    </mxGeometry>
                </mxCell>
                <mxCell id="SUqyX6ZWO_V6x3E6NFx7-56" value="" style="endArrow=classic;html=1;exitX=1;exitY=0.5;exitDx=0;exitDy=0;entryX=0.5;entryY=0;entryDx=0;entryDy=0;edgeStyle=orthogonalEdgeStyle;" parent="1" source="SUqyX6ZWO_V6x3E6NFx7-51" target="SUqyX6ZWO_V6x3E6NFx7-54" edge="1">
                    <mxGeometry width="50" height="50" relative="1" as="geometry">
                        <mxPoint x="1130" y="770" as="sourcePoint"/>
                        <mxPoint x="1180" y="720" as="targetPoint"/>
                    </mxGeometry>
                </mxCell>
                <mxCell id="SUqyX6ZWO_V6x3E6NFx7-57" value="" style="endArrow=classic;html=1;exitX=1;exitY=0.5;exitDx=0;exitDy=0;entryX=0.5;entryY=0;entryDx=0;entryDy=0;edgeStyle=orthogonalEdgeStyle;" parent="1" source="SUqyX6ZWO_V6x3E6NFx7-52" target="SUqyX6ZWO_V6x3E6NFx7-54" edge="1">
                    <mxGeometry width="50" height="50" relative="1" as="geometry">
                        <mxPoint x="1240" y="770" as="sourcePoint"/>
                        <mxPoint x="1290" y="720" as="targetPoint"/>
                    </mxGeometry>
                </mxCell>
                <mxCell id="SUqyX6ZWO_V6x3E6NFx7-58" value="Exit?" style="text;html=1;strokeColor=none;fillColor=none;align=center;verticalAlign=middle;whiteSpace=wrap;rounded=0;" parent="1" vertex="1">
                    <mxGeometry x="1200" y="640" width="110" height="30" as="geometry"/>
                </mxCell>
                <mxCell id="SUqyX6ZWO_V6x3E6NFx7-59" value="" style="endArrow=classic;html=1;exitX=0.5;exitY=1;exitDx=0;exitDy=0;edgeStyle=orthogonalEdgeStyle;" parent="1" source="SUqyX6ZWO_V6x3E6NFx7-54" edge="1">
                    <mxGeometry width="50" height="50" relative="1" as="geometry">
                        <mxPoint x="570" y="660" as="sourcePoint"/>
                        <mxPoint x="370" y="840" as="targetPoint"/>
                        <Array as="points">
                            <mxPoint x="1285" y="810"/>
                            <mxPoint x="370" y="810"/>
                        </Array>
                    </mxGeometry>
                </mxCell>
                <mxCell id="SUqyX6ZWO_V6x3E6NFx7-60" value="Yes" style="text;html=1;strokeColor=none;fillColor=none;align=center;verticalAlign=middle;whiteSpace=wrap;rounded=0;" parent="1" vertex="1">
                    <mxGeometry x="1260" y="740" width="110" height="30" as="geometry"/>
                </mxCell>
                <mxCell id="SUqyX6ZWO_V6x3E6NFx7-61" value="" style="endArrow=classic;html=1;edgeStyle=orthogonalEdgeStyle;entryX=0.5;entryY=0;entryDx=0;entryDy=0;startArrow=none;exitX=1;exitY=0.5;exitDx=0;exitDy=0;" parent="1" source="SUqyX6ZWO_V6x3E6NFx7-54" target="SUqyX6ZWO_V6x3E6NFx7-6" edge="1">
                    <mxGeometry width="50" height="50" relative="1" as="geometry">
                        <mxPoint x="1360" y="620" as="sourcePoint"/>
                        <mxPoint x="810" y="350" as="targetPoint"/>
                        <Array as="points">
                            <mxPoint x="1390" y="675"/>
                            <mxPoint x="1390" y="360"/>
                            <mxPoint x="985" y="360"/>
                        </Array>
                    </mxGeometry>
                </mxCell>
                <mxCell id="SUqyX6ZWO_V6x3E6NFx7-62" value="No" style="text;html=1;strokeColor=none;fillColor=none;align=center;verticalAlign=middle;whiteSpace=wrap;rounded=0;" parent="1" vertex="1">
                    <mxGeometry x="1370" y="540" width="80" height="30" as="geometry"/>
                </mxCell>
                <mxCell id="SUqyX6ZWO_V6x3E6NFx7-63" value="Stop" style="ellipse;whiteSpace=wrap;html=1;" parent="1" vertex="1">
                    <mxGeometry x="340" y="910" width="60" height="50" as="geometry"/>
                </mxCell>
                <mxCell id="SUqyX6ZWO_V6x3E6NFx7-68" value="" style="endArrow=classic;html=1;exitX=0.5;exitY=1;exitDx=0;exitDy=0;entryX=0.5;entryY=0;entryDx=0;entryDy=0;" parent="1" source="SUqyX6ZWO_V6x3E6NFx7-12" target="SUqyX6ZWO_V6x3E6NFx7-2" edge="1">
                    <mxGeometry width="50" height="50" relative="1" as="geometry">
                        <mxPoint x="480" y="210" as="sourcePoint"/>
                        <mxPoint x="530" y="160" as="targetPoint"/>
                    </mxGeometry>
                </mxCell>
                <mxCell id="2" value="" style="rhombus;whiteSpace=wrap;html=1;" vertex="1" parent="1">
                    <mxGeometry x="970" y="500" width="30" height="30" as="geometry"/>
                </mxCell>
                <mxCell id="4" value="" style="rhombus;whiteSpace=wrap;html=1;" vertex="1" parent="1">
                    <mxGeometry x="970" y="580" width="30" height="30" as="geometry"/>
                </mxCell>
                <mxCell id="5" value="" style="endArrow=classic;html=1;entryX=0.5;entryY=0;entryDx=0;entryDy=0;exitX=0.5;exitY=1;exitDx=0;exitDy=0;" edge="1" parent="1" source="SUqyX6ZWO_V6x3E6NFx7-6" target="2">
                    <mxGeometry width="50" height="50" relative="1" as="geometry">
                        <mxPoint x="910" y="360" as="sourcePoint"/>
                        <mxPoint x="960" y="310" as="targetPoint"/>
                    </mxGeometry>
                </mxCell>
                <mxCell id="6" value="" style="endArrow=classic;html=1;entryX=0.5;entryY=0;entryDx=0;entryDy=0;exitX=0.5;exitY=1;exitDx=0;exitDy=0;" edge="1" parent="1" source="2" target="4">
                    <mxGeometry width="50" height="50" relative="1" as="geometry">
                        <mxPoint x="930" y="380" as="sourcePoint"/>
                        <mxPoint x="980" y="330" as="targetPoint"/>
                    </mxGeometry>
                </mxCell>
                <mxCell id="8" value="Case 1" style="whiteSpace=wrap;html=1;shape=mxgraph.basic.document" vertex="1" parent="1">
                    <mxGeometry x="890" y="390" width="70" height="30" as="geometry"/>
                </mxCell>
                <mxCell id="9" value="Case 2" style="whiteSpace=wrap;html=1;shape=mxgraph.basic.document" vertex="1" parent="1">
                    <mxGeometry x="890" y="490" width="70" height="30" as="geometry"/>
                </mxCell>
                <mxCell id="10" value="Case 3" style="whiteSpace=wrap;html=1;shape=mxgraph.basic.document" vertex="1" parent="1">
                    <mxGeometry x="890" y="580" width="70" height="30" as="geometry"/>
                </mxCell>
                <mxCell id="13" value="True" style="text;html=1;strokeColor=none;fillColor=none;align=center;verticalAlign=middle;whiteSpace=wrap;rounded=0;" vertex="1" parent="1">
                    <mxGeometry x="1040" y="410" width="60" height="30" as="geometry"/>
                </mxCell>
                <mxCell id="14" value="False" style="text;html=1;strokeColor=none;fillColor=none;align=center;verticalAlign=middle;whiteSpace=wrap;rounded=0;" vertex="1" parent="1">
                    <mxGeometry x="980" y="460" width="60" height="30" as="geometry"/>
                </mxCell>
                <mxCell id="15" value="True" style="text;html=1;strokeColor=none;fillColor=none;align=center;verticalAlign=middle;whiteSpace=wrap;rounded=0;" vertex="1" parent="1">
                    <mxGeometry x="1040" y="570" width="60" height="30" as="geometry"/>
                </mxCell>
                <mxCell id="16" value="True" style="text;html=1;strokeColor=none;fillColor=none;align=center;verticalAlign=middle;whiteSpace=wrap;rounded=0;" vertex="1" parent="1">
                    <mxGeometry x="1040" y="490" width="60" height="30" as="geometry"/>
                </mxCell>
                <mxCell id="17" value="False" style="text;html=1;strokeColor=none;fillColor=none;align=center;verticalAlign=middle;whiteSpace=wrap;rounded=0;" vertex="1" parent="1">
                    <mxGeometry x="980" y="540" width="60" height="30" as="geometry"/>
                </mxCell>
                <mxCell id="20" value="" style="rhombus;whiteSpace=wrap;html=1;" vertex="1" parent="1">
                    <mxGeometry x="520" y="510" width="30" height="30" as="geometry"/>
                </mxCell>
                <mxCell id="21" value="" style="rhombus;whiteSpace=wrap;html=1;" vertex="1" parent="1">
                    <mxGeometry x="680" y="510" width="30" height="30" as="geometry"/>
                </mxCell>
                <mxCell id="22" value="" style="endArrow=classic;html=1;exitX=1;exitY=0.5;exitDx=0;exitDy=0;entryX=0;entryY=0.5;entryDx=0;entryDy=0;" edge="1" parent="1" source="20" target="21">
                    <mxGeometry width="50" height="50" relative="1" as="geometry">
                        <mxPoint x="600" y="520" as="sourcePoint"/>
                        <mxPoint x="650" y="470" as="targetPoint"/>
                    </mxGeometry>
                </mxCell>
                <mxCell id="23" value="True" style="text;html=1;strokeColor=none;fillColor=none;align=center;verticalAlign=middle;whiteSpace=wrap;rounded=0;" vertex="1" parent="1">
                    <mxGeometry x="360" y="560" width="60" height="30" as="geometry"/>
                </mxCell>
                <mxCell id="24" value="True" style="text;html=1;strokeColor=none;fillColor=none;align=center;verticalAlign=middle;whiteSpace=wrap;rounded=0;" vertex="1" parent="1">
                    <mxGeometry x="485" y="560" width="60" height="30" as="geometry"/>
                </mxCell>
                <mxCell id="25" value="True" style="text;html=1;strokeColor=none;fillColor=none;align=center;verticalAlign=middle;whiteSpace=wrap;rounded=0;" vertex="1" parent="1">
                    <mxGeometry x="645" y="560" width="60" height="30" as="geometry"/>
                </mxCell>
                <mxCell id="26" value="False" style="text;html=1;strokeColor=none;fillColor=none;align=center;verticalAlign=middle;whiteSpace=wrap;rounded=0;" vertex="1" parent="1">
                    <mxGeometry x="440" y="500" width="60" height="30" as="geometry"/>
                </mxCell>
                <mxCell id="27" value="False" style="text;html=1;strokeColor=none;fillColor=none;align=center;verticalAlign=middle;whiteSpace=wrap;rounded=0;" vertex="1" parent="1">
                    <mxGeometry x="585" y="500" width="60" height="30" as="geometry"/>
                </mxCell>
                <mxCell id="28" value="Case 1" style="whiteSpace=wrap;html=1;shape=mxgraph.basic.document" vertex="1" parent="1">
                    <mxGeometry x="290" y="480" width="70" height="30" as="geometry"/>
                </mxCell>
                <mxCell id="29" value="Case 2" style="whiteSpace=wrap;html=1;shape=mxgraph.basic.document" vertex="1" parent="1">
                    <mxGeometry x="490" y="470" width="70" height="30" as="geometry"/>
                </mxCell>
                <mxCell id="30" value="Case 3" style="whiteSpace=wrap;html=1;shape=mxgraph.basic.document" vertex="1" parent="1">
                    <mxGeometry x="660" y="470" width="70" height="30" as="geometry"/>
                </mxCell>
                <mxCell id="31" value="" style="endArrow=classic;html=1;exitX=1;exitY=0.5;exitDx=0;exitDy=0;edgeStyle=orthogonalEdgeStyle;" edge="1" parent="1" source="21">
                    <mxGeometry width="50" height="50" relative="1" as="geometry">
                        <mxPoint x="720" y="720" as="sourcePoint"/>
                        <mxPoint x="370" y="720" as="targetPoint"/>
                        <Array as="points">
                            <mxPoint x="780" y="525"/>
                            <mxPoint x="780" y="720"/>
                        </Array>
                    </mxGeometry>
                </mxCell>
                <mxCell id="32" value="" style="endArrow=classic;html=1;exitX=0.5;exitY=1;exitDx=0;exitDy=0;edgeStyle=orthogonalEdgeStyle;" edge="1" parent="1" source="SUqyX6ZWO_V6x3E6NFx7-30">
                    <mxGeometry width="50" height="50" relative="1" as="geometry">
                        <mxPoint x="550" y="710" as="sourcePoint"/>
                        <mxPoint x="380" y="720" as="targetPoint"/>
                        <Array as="points">
                            <mxPoint x="535" y="720"/>
                        </Array>
                    </mxGeometry>
                </mxCell>
                <mxCell id="33" value="" style="endArrow=classic;html=1;exitX=0.5;exitY=1;exitDx=0;exitDy=0;edgeStyle=orthogonalEdgeStyle;" edge="1" parent="1" source="SUqyX6ZWO_V6x3E6NFx7-31">
                    <mxGeometry width="50" height="50" relative="1" as="geometry">
                        <mxPoint x="560" y="720" as="sourcePoint"/>
                        <mxPoint x="380" y="720" as="targetPoint"/>
                        <Array as="points">
                            <mxPoint x="695" y="720"/>
                        </Array>
                    </mxGeometry>
                </mxCell>
                <mxCell id="34" value="False" style="text;html=1;strokeColor=none;fillColor=none;align=center;verticalAlign=middle;whiteSpace=wrap;rounded=0;" vertex="1" parent="1">
                    <mxGeometry x="730" y="500" width="60" height="30" as="geometry"/>
                </mxCell>
                <mxCell id="36" value="" style="endArrow=classic;html=1;exitX=0.5;exitY=1;exitDx=0;exitDy=0;entryX=0;entryY=0.5;entryDx=0;entryDy=0;edgeStyle=orthogonalEdgeStyle;" edge="1" parent="1" source="4" target="SUqyX6ZWO_V6x3E6NFx7-54">
                    <mxGeometry width="50" height="50" relative="1" as="geometry">
                        <mxPoint x="1070" y="690" as="sourcePoint"/>
                        <mxPoint x="1120" y="640" as="targetPoint"/>
                    </mxGeometry>
                </mxCell>
                <mxCell id="37" value="False" style="text;html=1;strokeColor=none;fillColor=none;align=center;verticalAlign=middle;whiteSpace=wrap;rounded=0;" vertex="1" parent="1">
                    <mxGeometry x="980" y="630" width="60" height="30" as="geometry"/>
                </mxCell>
            </root>
        </mxGraphModel>
    </diagram>
</mxfile>